# xmcd CD database file
#
# Track frame offsets:
#	150
#	22145
#	32666
#	49146
#	67771
#	83286
#	101121
#	115892
#	138624
#	163794
#	185840
#	202081
#
# Disc length: 2955 seconds
#
# Revision: 0
# Processed by: cddbd v1.5.1PL0 Copyright (c) Steve Scherf et al.
# Submitted via: CDex 1.51
#
DISCID=a80b890c
DTITLE=Sophie Milman - Sophie Milman
DYEAR=2004
DGENRE=Jazz
TTITLE0=La Vie En Rose
TTITLE1=Ochi Chemye (Dark Eyes)
TTITLE2=Back Home To Me
TTITLE3=Guilty
TTITLE4=I Can't Give You Anything But Love, Baby
TTITLE5=Agua De Beber
TTITLE6=Lonely In New York
TTITLE7=This Time Of the Year
TTITLE8=The Man I Love
TTITLE9=I Feel Pretty
TTITLE10=My Baby Just Cares For Me
TTITLE11=My Heart Belongs To Daddy
EXTD=YEAR: 2004
EXTT0=
EXTT1=
EXTT2=
EXTT3=
EXTT4=
EXTT5=
EXTT6=
EXTT7=
EXTT8=
EXTT9=
EXTT10=
EXTT11=
PLAYORDER=
